<svg xmlns:mydata="http://www.w3.org/2000/svg" mydata:contrastcolor="FFC658" mydata:template="BlackAndHighlightColorHex1" mydata:presentation="2.5" mydata:layouttype="undefined" mydata:specialfontid="undefined" mydata:id1="688" mydata:id2="177" mydata:companyname="Jan Shiksha Evam Sanskar Samiti" mydata:companytagline="" version="1.1" xmlns="http://www.w3.org/2000/svg" xmlns:xlink="http://www.w3.org/1999/xlink" viewBox="163.9334369460754 114.99999999999999 222.1331261078492 240" class="watermark-logo"><g fill="#e4002b" fill-rule="nonzero" stroke="none" stroke-width="1" stroke-linecap="butt" stroke-linejoin="miter" stroke-miterlimit="10" stroke-dasharray="" stroke-dashoffset="0" font-family="none" font-weight="none" font-size="none" text-anchor="none" style="mix-blend-mode: normal"><g data-paper-data="{&quot;isGlobalGroup&quot;:true,&quot;bounds&quot;:{&quot;x&quot;:163.9334369460754,&quot;y&quot;:114.99999999999999,&quot;width&quot;:222.1331261078492,&quot;height&quot;:240}}"><g data-paper-data="{&quot;isSecondaryText&quot;:true}"><path d="M184.34309,345.56002v1.15565h-6.01198v2.92159h6.01198v1.15565h-6.01198v2.92159h6.01198v1.15565h-7.16763v-9.31013z" data-paper-data="{&quot;glyphName&quot;:&quot;E&quot;,&quot;glyphIndex&quot;:0,&quot;firstGlyphOfWord&quot;:true,&quot;word&quot;:1}" style="fill: rgb(255, 255, 255);"></path><path d="M196.53369,345.55353l-4.09672,9.31662l-1.06476,-0.01948l-3.62277,-9.29715h1.25304l2.93457,7.56367l3.27867,-7.56367z" data-paper-data="{&quot;glyphName&quot;:&quot;V&quot;,&quot;glyphIndex&quot;:1,&quot;word&quot;:1}" style="fill: rgb(255, 255, 255);"></path><path d="M201.71897,345.55353l4.82387,9.31662h-1.2855l-1.10371,-2.09705h-5.90161l-1.08423,2.09705h-1.2855l4.80439,-9.31662zM198.85581,351.61745h4.69402l-2.34376,-4.5382z" data-paper-data="{&quot;glyphName&quot;:&quot;A&quot;,&quot;glyphIndex&quot;:2,&quot;word&quot;:1}" style="fill: rgb(255, 255, 255);"></path><path d="M219.94752,345.56002v9.31013h-1.15565v-6.53787l-3.69419,6.53787h-0.83752l-3.19427,-6.30414v6.30414h-1.15565v-9.31013h0.92842l3.86948,7.63509l4.32395,-7.63509z" data-paper-data="{&quot;glyphName&quot;:&quot;M&quot;,&quot;glyphIndex&quot;:3,&quot;lastGlyphOfWord&quot;:true,&quot;word&quot;:1}" style="fill: rgb(255, 255, 255);"></path><path d="M232.27879,354.96754c-0.68387,-0.06492 -1.32229,-0.25753 -1.91526,-0.57783l-0.5129,-0.27268l0.54536,-1.01931l0.5129,0.27268c0.4588,0.24238 0.95222,0.38955 1.48027,0.44148c1.0258,0.09955 1.859,-0.05843 2.49958,-0.47395c0.32029,-0.23806 0.49559,-0.51507 0.52589,-0.83103c0.02597,-0.2597 -0.09522,-0.53887 -0.36358,-0.83752c-0.39387,-0.37223 -1.12319,-0.67521 -2.18795,-0.90894h-0.01298c-1.27684,-0.29865 -2.17496,-0.70118 -2.69435,-1.20759l-0.02597,-0.02597c-0.31596,-0.34626 -0.52156,-0.67521 -0.61678,-0.98685c-0.06492,-0.21209 -0.0844,-0.46096 -0.05843,-0.74663c0.06492,-0.66656 0.40253,-1.22274 1.01282,-1.66855l0.01948,-0.01948c0.86998,-0.57133 1.95638,-0.79424 3.25919,-0.66872c0.64491,0.06492 1.25087,0.24022 1.81788,0.52589l0.51939,0.2597l-0.51939,1.03229l-0.51939,-0.2597c-0.44148,-0.22074 -0.9111,-0.35492 -1.40886,-0.40253c-1.0258,-0.09955 -1.859,0.05843 -2.49958,0.47395c-0.32029,0.23806 -0.49559,0.51507 -0.52589,0.83103c-0.02597,0.2597 0.09739,0.53887 0.37007,0.83752c0.3679,0.35059 1.07558,0.64924 2.12302,0.89595c1.29848,0.28134 2.22041,0.6882 2.76577,1.22057l0.02597,0.02597c0.31596,0.34626 0.52156,0.67521 0.61678,0.98685c0.06492,0.21209 0.0844,0.46096 0.05843,0.74663c-0.06492,0.67088 -0.40037,1.22923 -1.00633,1.67504l-0.02597,0.01298c-0.70984,0.46745 -1.569,0.70118 -2.57749,0.70118c-0.22074,0 -0.44798,-0.01082 -0.6817,-0.03246z" data-paper-data="{&quot;glyphName&quot;:&quot;S&quot;,&quot;glyphIndex&quot;:4,&quot;firstGlyphOfWord&quot;:true,&quot;word&quot;:2}" style="fill: rgb(255, 255, 255);"></path><path d="M245.02125,345.55353l4.82387,9.31662h-1.2855l-1.10371,-2.09705h-5.90161l-1.08423,2.09705h-1.2855l4.80439,-9.31662zM242.15809,351.61745h4.69402l-2.34376,-4.5382z" data-paper-data="{&quot;glyphName&quot;:&quot;A&quot;,&quot;glyphIndex&quot;:5,&quot;word&quot;:2}" style="fill: rgb(255, 255, 255);"></path><path d="M260.37366,345.56002v9.31013h-0.88297l-5.12901,-6.97286v6.97286h-1.15565v-9.31013h0.86998l5.1355,6.97286v-6.97286z" data-paper-data="{&quot;glyphName&quot;:&quot;N&quot;,&quot;glyphIndex&quot;:6,&quot;word&quot;:2}" style="fill: rgb(255, 255, 255);"></path><path d="M266.57176,354.96754c-0.68387,-0.06492 -1.32229,-0.25753 -1.91526,-0.57783l-0.5129,-0.27268l0.54536,-1.01931l0.5129,0.27268c0.4588,0.24238 0.95222,0.38955 1.48027,0.44148c1.0258,0.09955 1.859,-0.05843 2.49958,-0.47395c0.32029,-0.23806 0.49559,-0.51507 0.52589,-0.83103c0.02597,-0.2597 -0.09522,-0.53887 -0.36358,-0.83752c-0.39387,-0.37223 -1.12319,-0.67521 -2.18795,-0.90894h-0.01298c-1.27684,-0.29865 -2.17496,-0.70118 -2.69435,-1.20759l-0.02597,-0.02597c-0.31596,-0.34626 -0.52156,-0.67521 -0.61678,-0.98685c-0.06492,-0.21209 -0.0844,-0.46096 -0.05843,-0.74663c0.06492,-0.66656 0.40253,-1.22274 1.01282,-1.66855l0.01948,-0.01948c0.86998,-0.57133 1.95638,-0.79424 3.25919,-0.66872c0.64491,0.06492 1.25087,0.24022 1.81788,0.52589l0.51939,0.2597l-0.51939,1.03229l-0.51939,-0.2597c-0.44148,-0.22074 -0.9111,-0.35492 -1.40886,-0.40253c-1.0258,-0.09955 -1.859,0.05843 -2.49958,0.47395c-0.32029,0.23806 -0.49559,0.51507 -0.52589,0.83103c-0.02597,0.2597 0.09739,0.53887 0.37007,0.83752c0.3679,0.35059 1.07558,0.64924 2.12302,0.89595c1.29848,0.28134 2.22041,0.6882 2.76577,1.22057l0.02597,0.02597c0.31596,0.34626 0.52156,0.67521 0.61678,0.98685c0.06492,0.21209 0.0844,0.46096 0.05843,0.74663c-0.06492,0.67088 -0.40037,1.22923 -1.00633,1.67504l-0.02597,0.01298c-0.70984,0.46745 -1.569,0.70118 -2.57749,0.70118c-0.22074,0 -0.44798,-0.01082 -0.6817,-0.03246z" data-paper-data="{&quot;glyphName&quot;:&quot;S&quot;,&quot;glyphIndex&quot;:7,&quot;word&quot;:2}" style="fill: rgb(255, 255, 255);"></path><path d="M283.62518,345.56002l-5.47311,4.65507l5.47311,4.65507h-1.7984l-4.56417,-3.89545l-1.81139,1.5452v2.35026h-1.15565v-9.31013h1.15565v5.44065l6.37556,-5.44065z" data-paper-data="{&quot;glyphName&quot;:&quot;K&quot;,&quot;glyphIndex&quot;:8,&quot;word&quot;:2}" style="fill: rgb(255, 255, 255);"></path><path d="M292.85524,345.55353l4.82387,9.31662h-1.2855l-1.10371,-2.09705h-5.90161l-1.08423,2.09705h-1.2855l4.80439,-9.31662zM289.99208,351.61745h4.69402l-2.34376,-4.5382z" data-paper-data="{&quot;glyphName&quot;:&quot;A&quot;,&quot;glyphIndex&quot;:9,&quot;word&quot;:2}" style="fill: rgb(255, 255, 255);"></path><path d="M302.19567,349.63726h4.16813c0.40253,0 0.74446,-0.14283 1.0258,-0.4285c0.28567,-0.28567 0.4285,-0.62976 0.4285,-1.03229c0,-0.40253 -0.14283,-0.74663 -0.4285,-1.03229c-0.28134,-0.28567 -0.62327,-0.4285 -1.0258,-0.4285h-4.16813zM308.20765,346.32613c0.51507,0.51074 0.7726,1.12752 0.7726,1.85034c0,0.62327 -0.1991,1.17513 -0.5973,1.65557c-0.38955,0.47611 -0.88297,0.77693 -1.48027,0.90245l2.07757,4.13567h-1.30498l-2.03862,-4.07724h-3.44098v4.07724h-1.15565v-9.31013h5.32378c0.71849,0 1.33311,0.25537 1.84385,0.76611z" data-paper-data="{&quot;glyphName&quot;:&quot;R&quot;,&quot;glyphIndex&quot;:10,&quot;lastGlyphOfWord&quot;:true,&quot;word&quot;:2}" style="fill: rgb(255, 255, 255);"></path><path d="M321.25308,354.96754c-0.68387,-0.06492 -1.32229,-0.25753 -1.91526,-0.57783l-0.5129,-0.27268l0.54536,-1.01931l0.5129,0.27268c0.4588,0.24238 0.95222,0.38955 1.48027,0.44148c1.0258,0.09955 1.859,-0.05843 2.49958,-0.47395c0.32029,-0.23806 0.49559,-0.51507 0.52589,-0.83103c0.02597,-0.2597 -0.09522,-0.53887 -0.36358,-0.83752c-0.39387,-0.37223 -1.12319,-0.67521 -2.18795,-0.90894h-0.01298c-1.27684,-0.29865 -2.17496,-0.70118 -2.69435,-1.20759l-0.02597,-0.02597c-0.31596,-0.34626 -0.52156,-0.67521 -0.61678,-0.98685c-0.06492,-0.21209 -0.0844,-0.46096 -0.05843,-0.74663c0.06492,-0.66656 0.40253,-1.22274 1.01282,-1.66855l0.01948,-0.01948c0.86998,-0.57133 1.95638,-0.79424 3.25919,-0.66872c0.64491,0.06492 1.25087,0.24022 1.81788,0.52589l0.51939,0.2597l-0.51939,1.03229l-0.51939,-0.2597c-0.44148,-0.22074 -0.9111,-0.35492 -1.40886,-0.40253c-1.0258,-0.09955 -1.859,0.05843 -2.49958,0.47395c-0.32029,0.23806 -0.49559,0.51507 -0.52589,0.83103c-0.02597,0.2597 0.09739,0.53887 0.37007,0.83752c0.3679,0.35059 1.07558,0.64924 2.12302,0.89595c1.29848,0.28134 2.22041,0.6882 2.76577,1.22057l0.02597,0.02597c0.31596,0.34626 0.52156,0.67521 0.61678,0.98685c0.06492,0.21209 0.0844,0.46096 0.05843,0.74663c-0.06492,0.67088 -0.40037,1.22923 -1.00633,1.67504l-0.02597,0.01298c-0.70984,0.46745 -1.569,0.70118 -2.57749,0.70118c-0.22074,0 -0.44798,-0.01082 -0.6817,-0.03246z" data-paper-data="{&quot;glyphName&quot;:&quot;S&quot;,&quot;glyphIndex&quot;:11,&quot;firstGlyphOfWord&quot;:true,&quot;word&quot;:3}" style="fill: rgb(255, 255, 255);"></path><path d="M333.99554,345.55353l4.82387,9.31662h-1.2855l-1.10371,-2.09705h-5.90161l-1.08423,2.09705h-1.2855l4.80439,-9.31662zM331.13238,351.61745h4.69402l-2.34376,-4.5382z" data-paper-data="{&quot;glyphName&quot;:&quot;A&quot;,&quot;glyphIndex&quot;:12,&quot;word&quot;:3}" style="fill: rgb(255, 255, 255);"></path><path d="M352.22409,345.56002v9.31013h-1.15565v-6.53787l-3.69419,6.53787h-0.83752l-3.19427,-6.30414v6.30414h-1.15565v-9.31013h0.92842l3.86948,7.63509l4.32395,-7.63509z" data-paper-data="{&quot;glyphName&quot;:&quot;M&quot;,&quot;glyphIndex&quot;:13,&quot;word&quot;:3}" style="fill: rgb(255, 255, 255);"></path><path d="M356.81207,354.87015h-1.15565v-9.31662h1.15565z" data-paper-data="{&quot;glyphName&quot;:&quot;I&quot;,&quot;glyphIndex&quot;:14,&quot;word&quot;:3}" style="fill: rgb(255, 255, 255);"></path><path d="M368.26253,345.56002v1.15565h-3.44748v8.15448h-1.15565v-8.15448h-3.44748v-1.15565z" data-paper-data="{&quot;glyphName&quot;:&quot;T&quot;,&quot;glyphIndex&quot;:15,&quot;word&quot;:3}" style="fill: rgb(255, 255, 255);"></path><path d="M372.82454,354.87015h-1.15565v-9.31662h1.15565z" data-paper-data="{&quot;glyphName&quot;:&quot;I&quot;,&quot;glyphIndex&quot;:16,&quot;lastGlyphOfWord&quot;:true,&quot;word&quot;:3}" style="fill: rgb(255, 255, 255);"></path></g><g data-paper-data="{&quot;isPrimaryText&quot;:true}"><path d="M180.64655,305.2064h-8.35632c-1.53861,0 -2.78592,1.24683 -2.78592,2.78544c0,1.53861 1.24731,2.78544 2.78592,2.78544h5.57088v19.49903c0,1.53574 -1.2497,2.78544 -2.78544,2.78544h-2.78544c-1.53622,0 -2.78592,-1.2497 -2.78592,-2.78544c0,-1.53861 -1.24683,-2.78544 -2.78544,-2.78544c-1.53813,0 -2.78544,1.24683 -2.78544,2.78544c0,4.6077 3.7491,8.35632 8.35679,8.35632h2.78544c4.6077,0 8.35679,-3.74862 8.35679,-8.35632v-22.28447c0,-1.53861 -1.24731,-2.78544 -2.78592,-2.78544z" data-paper-data="{&quot;glyphName&quot;:&quot;J&quot;,&quot;glyphIndex&quot;:0,&quot;firstGlyphOfWord&quot;:true,&quot;word&quot;:1}" style="fill: rgb(255, 255, 255);"></path><path d="M207.49526,335.04637l-8.35679,-27.85535c-0.00143,-0.0043 -0.00382,-0.00764 -0.00478,-0.01098c-0.04728,-0.15424 -0.11126,-0.30228 -0.18433,-0.44554c-0.04632,-0.09073 -0.10219,-0.17334 -0.15663,-0.25691c-0.05587,-0.08548 -0.10601,-0.1743 -0.17096,-0.25309c-0.05969,-0.07258 -0.13084,-0.13323 -0.19722,-0.19913c-0.06208,-0.06208 -0.11843,-0.12846 -0.18671,-0.1848c-0.08691,-0.07258 -0.18433,-0.12893 -0.27983,-0.18958c-0.07306,-0.04728 -0.14469,-0.09503 -0.22301,-0.13562c-0.14565,-0.07402 -0.29655,-0.13896 -0.45318,-0.18719c-0.0043,-0.00048 -0.00764,-0.00334 -0.01146,-0.00477c-0.05348,-0.01624 -0.10649,-0.01862 -0.1595,-0.03104c-0.12129,-0.02865 -0.24163,-0.05921 -0.36722,-0.07163c-0.0998,-0.01003 -0.19865,-0.00334 -0.29798,-0.00287c-0.08166,0.00096 -0.16236,-0.00573 -0.24497,0.00287c-0.1423,0.01337 -0.28127,0.04537 -0.41832,0.0807c-0.0382,0.00907 -0.07593,0.01098 -0.11317,0.02197c-0.00334,0.00096 -0.00573,0.00239 -0.00812,0.00334c-0.17764,0.05396 -0.34955,0.12368 -0.51191,0.21107c-0.01624,0.0086 -0.02961,0.02197 -0.04584,0.03056c-0.14039,0.07975 -0.27697,0.16857 -0.40304,0.27124c-0.05969,0.04871 -0.10792,0.1084 -0.16332,0.16141c-0.07497,0.07258 -0.15329,0.14087 -0.22014,0.22157c-0.06065,0.07402 -0.10697,0.15759 -0.15902,0.23686c-0.05874,0.0893 -0.11843,0.17764 -0.16857,0.27506c-0.07211,0.14326 -0.1361,0.28986 -0.18337,0.4441c-0.00096,0.00382 -0.00334,0.00716 -0.00525,0.01146l-8.35536,27.8563c-0.44219,1.47366 0.39396,3.02659 1.86762,3.46879c0.26694,0.07975 0.53627,0.11843 0.8013,0.11843c1.1986,0 2.30504,-0.77981 2.66701,-1.98653l1.91156,-6.37074h7.55407l1.91156,6.37074c0.36197,1.20672 1.46841,1.98653 2.66701,1.98653c0.26503,0 0.53436,-0.03868 0.8013,-0.11843c1.47462,-0.44219 2.30982,-1.99513 1.86858,-3.46879zM194.36411,324.70495l2.10591,-7.01923l2.10639,7.01923z" data-paper-data="{&quot;glyphName&quot;:&quot;A&quot;,&quot;glyphIndex&quot;:1,&quot;word&quot;:1}" style="fill: rgb(255, 255, 255);"></path><path d="M225.72644,305.2064c-1.53861,0 -2.78544,1.24683 -2.78544,2.78544v14.3202l-8.7073,-15.67353c-0.01815,-0.03343 -0.04441,-0.05969 -0.06399,-0.09264c-0.05205,-0.085 -0.10935,-0.16475 -0.17,-0.24402c-0.05301,-0.0702 -0.10697,-0.13801 -0.1657,-0.20152c-0.0616,-0.06542 -0.12655,-0.12511 -0.19388,-0.18528c-0.06829,-0.06017 -0.13657,-0.12034 -0.20964,-0.17334c-0.07163,-0.05205 -0.14756,-0.09742 -0.22396,-0.1423c-0.07641,-0.04537 -0.15329,-0.0893 -0.23304,-0.12702c-0.08261,-0.03868 -0.16714,-0.06924 -0.25357,-0.09933c-0.085,-0.02961 -0.16857,-0.05826 -0.25596,-0.07927c-0.08452,-0.02101 -0.17,-0.03438 -0.25691,-0.04728c-0.09789,-0.01433 -0.19531,-0.02531 -0.29464,-0.02913c-0.0382,-0.00191 -0.07402,-0.01098 -0.11318,-0.01098c-0.0468,0 -0.09073,0.01146 -0.13705,0.01337c-0.09933,0.00525 -0.1977,0.01433 -0.29798,0.03008c-0.0893,0.01433 -0.17621,0.03295 -0.26216,0.05492c-0.08548,0.02197 -0.17,0.04823 -0.25405,0.07927c-0.09503,0.03438 -0.18624,0.07402 -0.27649,0.11843c-0.04107,0.02053 -0.085,0.03152 -0.12511,0.05396c-0.03391,0.01862 -0.05969,0.04489 -0.09264,0.06399c-0.085,0.05253 -0.16523,0.10888 -0.24354,0.16952c-0.06972,0.05396 -0.13801,0.10744 -0.202,0.16666c-0.0659,0.06065 -0.12464,0.12607 -0.18433,0.19292c-0.0616,0.06876 -0.12034,0.13705 -0.1743,0.21107c-0.05157,0.07163 -0.09694,0.1466 -0.14183,0.22253c-0.04537,0.07736 -0.08978,0.15424 -0.12798,0.2359c-0.03772,0.08166 -0.06781,0.1657 -0.09837,0.2507c-0.03008,0.085 -0.05874,0.17 -0.07975,0.25834c-0.02053,0.08357 -0.03486,0.16952 -0.04728,0.25548c-0.01528,0.09837 -0.02626,0.19627 -0.03056,0.29607c-0.00143,0.0382 -0.01098,0.07354 -0.01098,0.11222v27.85535c0,1.53861 1.24731,2.78544 2.78592,2.78544c1.53813,0 2.78544,-1.24683 2.78544,-2.78544v-17.1066l8.35679,15.04175v2.06389c0,1.53861 1.24683,2.78592 2.78544,2.78592c1.53813,0 2.78544,-1.24731 2.78544,-2.78592v-27.85439c0,-1.53861 -1.24731,-2.78544 -2.78544,-2.78544z" data-paper-data="{&quot;glyphName&quot;:&quot;N&quot;,&quot;glyphIndex&quot;:2,&quot;lastGlyphOfWord&quot;:true,&quot;word&quot;:1}" style="fill: rgb(255, 255, 255);"></path><path d="M254.29092,319.53042c-3.47881,-2.08729 -5.61195,-3.49266 -5.61195,-5.96771c0,-1.53574 1.2497,-2.78544 2.78592,-2.78544h2.78544c1.53574,0 2.78544,1.2497 2.78544,2.78544c0,1.53861 1.24731,2.78592 2.78544,2.78592c1.53861,0 2.78592,-1.24731 2.78592,-2.78592c0,-4.6077 -3.7491,-8.35632 -8.35679,-8.35632h-2.78544c-4.6077,0 -8.35679,3.74862 -8.35679,8.35632c0,5.75568 4.61104,8.52202 8.3162,10.74588c3.47881,2.08729 5.61147,3.49266 5.61147,5.96771c0,1.53574 -1.2497,2.78544 -2.78544,2.78544h-2.78544c-1.53622,0 -2.78592,-1.2497 -2.78592,-2.78544c0,-1.53861 -1.24683,-2.78544 -2.78544,-2.78544c-1.53813,0 -2.78544,1.24683 -2.78544,2.78544c0,4.6077 3.7491,8.35632 8.35679,8.35632h2.78544c4.6077,0 8.35679,-3.74862 8.35679,-8.35632c0.00048,-5.75568 -4.61056,-8.5225 -8.31621,-10.74588z" data-paper-data="{&quot;glyphName&quot;:&quot;S&quot;,&quot;glyphIndex&quot;:3,&quot;firstGlyphOfWord&quot;:true,&quot;word&quot;:2}" style="fill: rgb(255, 255, 255);"></path><path d="M282.9022,305.2064c-1.53861,0 -2.78592,1.24683 -2.78592,2.78544v11.14223h-8.35632v-11.14223c0,-1.53861 -1.24731,-2.78544 -2.78592,-2.78544c-1.53813,0 -2.78544,1.24683 -2.78544,2.78544v11.14223c-1.53813,0 -2.78544,1.24683 -2.78544,2.78544c0,1.53861 1.24731,2.78544 2.78544,2.78544v11.14223c0,1.53861 1.24731,2.78544 2.78544,2.78544c1.53861,0 2.78592,-1.24683 2.78592,-2.78544v-11.14223h8.35632v11.14223c0,1.53861 1.24731,2.78544 2.78592,2.78544c1.53813,0 2.78544,-1.24683 2.78544,-2.78544v-27.85535c0,-1.53861 -1.24731,-2.78544 -2.78544,-2.78544z" data-paper-data="{&quot;glyphName&quot;:&quot;H&quot;,&quot;glyphIndex&quot;:4,&quot;word&quot;:2}" style="fill: rgb(255, 255, 255);"></path><path d="M290.39944,305.2064c-1.53813,0 -2.78544,1.24683 -2.78544,2.78544v27.85535c0,1.53861 1.24731,2.78544 2.78544,2.78544c1.53861,0 2.78544,-1.24683 2.78544,-2.78544v-27.85535c0,-1.53861 -1.24683,-2.78544 -2.78544,-2.78544z" data-paper-data="{&quot;glyphName&quot;:&quot;I&quot;,&quot;glyphIndex&quot;:5,&quot;word&quot;:2}" style="fill: rgb(255, 255, 255);"></path><path d="M314.56252,333.06175c-6.60999,0 -8.35632,-7.28808 -8.35632,-11.14223c0,-0.49615 -0.00096,-0.90015 -0.01624,-1.23537l7.85968,-11.08159c0.89012,-1.25447 0.59453,-2.99364 -0.6609,-3.88328c-1.25447,-0.89107 -2.99364,-0.59453 -3.88328,0.65995l-8.87062,12.50559v-10.89296c0,-1.53861 -1.24683,-2.78544 -2.78544,-2.78544c-1.53861,0 -2.78544,1.24683 -2.78544,2.78544v27.85535c0,1.53861 1.24683,2.78544 2.78544,2.78544c1.53861,0 2.78544,-1.24683 2.78544,-2.78544v-7.33154l0.73922,-1.04293c0.48851,1.8108 1.20624,3.51081 2.12119,4.97587c2.52901,4.04517 6.35498,6.18403 11.06726,6.18403c1.53861,0 2.78592,-1.24683 2.78592,-2.78544c0,-1.53813 -1.24731,-2.78544 -2.78592,-2.78544z" data-paper-data="{&quot;glyphName&quot;:&quot;K&quot;,&quot;glyphIndex&quot;:6,&quot;word&quot;:2}" style="fill: rgb(255, 255, 255);"></path><path d="M330.45714,319.53042c-3.47881,-2.08729 -5.61195,-3.49266 -5.61195,-5.96771c0,-1.53574 1.2497,-2.78544 2.78592,-2.78544h2.78544c1.53574,0 2.78544,1.2497 2.78544,2.78544c0,1.53861 1.24731,2.78592 2.78544,2.78592c1.53861,0 2.78592,-1.24731 2.78592,-2.78592c0,-4.6077 -3.7491,-8.35632 -8.35679,-8.35632h-2.78544c-4.6077,0 -8.35679,3.74862 -8.35679,8.35632c0,5.75568 4.61104,8.52202 8.3162,10.74588c3.47881,2.08729 5.61147,3.49266 5.61147,5.96771c0,1.53574 -1.2497,2.78544 -2.78544,2.78544h-2.78544c-1.53622,0 -2.78592,-1.2497 -2.78592,-2.78544c0,-1.53861 -1.24683,-2.78544 -2.78544,-2.78544c-1.53813,0 -2.78544,1.24683 -2.78544,2.78544c0,4.6077 3.7491,8.35632 8.35679,8.35632h2.78544c4.6077,0 8.35679,-3.74862 8.35679,-8.35632c0.00048,-5.75568 -4.61056,-8.5225 -8.31621,-10.74588z" data-paper-data="{&quot;glyphName&quot;:&quot;S&quot;,&quot;glyphIndex&quot;:7,&quot;word&quot;:2}" style="fill: rgb(255, 255, 255);"></path><path d="M359.06842,305.2064c-1.53861,0 -2.78592,1.24683 -2.78592,2.78544v11.14223h-8.35632v-11.14223c0,-1.53861 -1.24731,-2.78544 -2.78592,-2.78544c-1.53813,0 -2.78544,1.24683 -2.78544,2.78544v11.14223c-1.53813,0 -2.78544,1.24683 -2.78544,2.78544c0,1.53861 1.24731,2.78544 2.78544,2.78544v11.14223c0,1.53861 1.24731,2.78544 2.78544,2.78544c1.53861,0 2.78592,-1.24683 2.78592,-2.78544v-11.14223h8.35632v11.14223c0,1.53861 1.24731,2.78544 2.78592,2.78544c1.53813,0 2.78544,-1.24683 2.78544,-2.78544v-27.85535c0,-1.53861 -1.24731,-2.78544 -2.78544,-2.78544z" data-paper-data="{&quot;glyphName&quot;:&quot;H&quot;,&quot;glyphIndex&quot;:8,&quot;word&quot;:2}" style="fill: rgb(255, 255, 255);"></path><path d="M385.94865,335.04637l-8.35679,-27.85535c-0.00143,-0.0043 -0.00382,-0.00764 -0.00478,-0.01098c-0.04728,-0.15424 -0.11126,-0.30228 -0.18433,-0.44554c-0.04632,-0.09073 -0.10219,-0.17334 -0.15663,-0.25691c-0.05587,-0.08548 -0.10601,-0.1743 -0.17096,-0.25309c-0.05969,-0.07258 -0.13084,-0.13323 -0.19722,-0.19913c-0.06208,-0.06208 -0.11843,-0.12846 -0.18671,-0.1848c-0.08691,-0.07258 -0.18433,-0.12893 -0.27983,-0.18958c-0.07306,-0.04728 -0.14469,-0.09503 -0.22301,-0.13562c-0.14565,-0.07402 -0.29655,-0.13896 -0.45318,-0.18719c-0.0043,-0.00048 -0.00764,-0.00334 -0.01146,-0.00477c-0.05348,-0.01624 -0.10649,-0.01862 -0.1595,-0.03104c-0.12129,-0.02865 -0.24163,-0.05921 -0.36722,-0.07163c-0.0998,-0.01003 -0.19865,-0.00334 -0.29798,-0.00287c-0.08166,0.00096 -0.16236,-0.00573 -0.24497,0.00287c-0.1423,0.01337 -0.28127,0.04537 -0.41832,0.0807c-0.0382,0.00907 -0.07593,0.01098 -0.11317,0.02197c-0.00334,0.00096 -0.00573,0.00239 -0.00812,0.00334c-0.17764,0.05396 -0.34955,0.12368 -0.51191,0.21107c-0.01624,0.0086 -0.02961,0.02197 -0.04584,0.03056c-0.14039,0.07975 -0.27697,0.16857 -0.40304,0.27124c-0.05969,0.04871 -0.10792,0.1084 -0.16332,0.16141c-0.07497,0.07258 -0.15329,0.14087 -0.22014,0.22157c-0.06065,0.07402 -0.10697,0.15759 -0.15902,0.23686c-0.05874,0.0893 -0.11843,0.17764 -0.16857,0.27506c-0.07211,0.14326 -0.1361,0.28986 -0.18337,0.4441c-0.00096,0.00382 -0.00334,0.00716 -0.00525,0.01146l-8.35536,27.8563c-0.44219,1.47366 0.39396,3.02659 1.86762,3.46879c0.26694,0.07975 0.53627,0.11843 0.8013,0.11843c1.1986,0 2.30504,-0.77981 2.66701,-1.98653l1.91156,-6.37074h7.55407l1.91156,6.37074c0.36197,1.20672 1.46841,1.98653 2.66701,1.98653c0.26503,0 0.53436,-0.03868 0.8013,-0.11843c1.47462,-0.44219 2.30982,-1.99513 1.86858,-3.46879zM372.81749,324.70495l2.10591,-7.01923l2.10639,7.01923z" data-paper-data="{&quot;glyphName&quot;:&quot;A&quot;,&quot;glyphIndex&quot;:9,&quot;lastGlyphOfWord&quot;:true,&quot;word&quot;:2}" style="fill: rgb(255, 255, 255);"></path></g><g data-paper-data="{&quot;isIcon&quot;:&quot;true&quot;,&quot;iconType&quot;:&quot;icon&quot;,&quot;rawIconId&quot;:&quot;c98f8ac1-250e-4c26-8263-631bcf2b0184&quot;,&quot;selectedEffects&quot;:{&quot;container&quot;:&quot;&quot;,&quot;transformation&quot;:&quot;&quot;,&quot;pattern&quot;:&quot;&quot;},&quot;isDetailed&quot;:false,&quot;fillRule&quot;:&quot;nonzero&quot;,&quot;bounds&quot;:{&quot;x&quot;:236.69657852424035,&quot;y&quot;:114.99999999999999,&quot;width&quot;:76.60684295151935,&quot;height&quot;:161.03540076789636},&quot;iconStyle&quot;:&quot;standalone&quot;,&quot;suitableAsStandaloneIcon&quot;:true}"><path d="M296.27967,115.00001c-9.89217,0 -17.94394,8.05177 -17.94394,17.94394v83.50836c0,13.57298 -10.81238,24.38536 -24.38536,24.38536v0.23005c-9.43208,0 -17.25379,8.05177 -17.25379,17.48385v13.57298c0,2.07046 1.8404,3.91086 3.91086,3.91086l13.34293,-0.23005c32.89723,0 59.35305,-26.45581 59.35305,-59.35305v-97.54145c0,-2.07046 -1.8404,-3.91086 -3.91086,-3.91086z" data-paper-data="{&quot;isPathIcon&quot;:true}" style="fill: rgb(255, 255, 255);"></path></g></g></g></svg>